<?xml version="1.0" encoding="utf-8"?>
<!-- Generator: Adobe Illustrator 19.0.0, SVG Export Plug-In . SVG Version: 6.00 Build 0)  -->
<svg version="1.1" id="Layer_1" xmlns="http://www.w3.org/2000/svg" xmlns:xlink="http://www.w3.org/1999/xlink" x="0px" y="0px"
	 viewBox="0 0 220 210.6" style="enable-background:new 0 0 220 210.6;" xml:space="preserve">
<style type="text/css">
	.st0{fill:#FFFFFF;}
	.st1{fill:#7F3F98;}
	.st2{opacity:0.71;fill:#7F3F98;}
	.st3{opacity:0.35;fill:#7F3F98;}
	.st4{fill:#FCB117;}
	.st5{opacity:0.7;fill:#FCB117;}
	.st6{opacity:0.3;fill:#FCB117;}
</style>
<path id="XMLID_1_" d="M199.2,206.5h-177c-6.6,0-12-5.4-12-12v-177c0-6.6,5.4-12,12-12h177c6.6,0,12,5.4,12,12v177
	C211.2,201.1,205.8,206.5,199.2,206.5z"/>
<path id="XMLID_3_" class="st0" d="M68,153.6V58.4h39.1v12H85.3v27.7h17.4v12.2H85.3v43.3H68z"/>
<path id="XMLID_5_" class="st0" d="M116.2,153.6V58.4h27.4c16.2,0,24.3,9,24.3,27c0,8.8-2.2,15.3-6.7,19.4
	c-4.4,4.1-10.7,6.2-18.8,6.2h-9v42.5H116.2z M133.6,98.9h5.6c4.9,0,8.2-1,9.9-2.9c1.7-1.9,2.6-5.5,2.6-10.6c0-2.9-0.1-5.2-0.3-6.8
	c-0.2-1.6-0.8-3.1-1.6-4.4c-0.8-1.3-2.1-2.2-3.8-2.7c-1.7-0.5-3.9-0.7-6.7-0.7h-5.6V98.9z"/>
<rect id="XMLID_2_" x="68" y="42.1" class="st1" width="39.1" height="5.7"/>
<rect id="XMLID_10_" x="68" y="32.8" class="st2" width="39.1" height="5.7"/>
<rect id="XMLID_11_" x="68" y="23.6" class="st3" width="39.1" height="5.7"/>
<rect id="XMLID_13_" x="116.2" y="164.2" class="st4" width="39.1" height="5.7"/>
<rect id="XMLID_12_" x="116.2" y="173.4" class="st5" width="39.1" height="5.7"/>
<rect id="XMLID_9_" x="116.2" y="182.6" class="st6" width="39.1" height="5.7"/>
</svg>
